<?xml version="1.0"?>
<svg width="174" height="26" xmlns="http://www.w3.org/2000/svg" xmlns:svg="http://www.w3.org/2000/svg">
 <g class="layer">
  <title>Layer 1</title>
  <path d="m38.72,25.76c2.76,0 5.04,-2.26 4.53,-4.97c-0.32,-1.7 -0.8,-3.37 -1.45,-4.98c-1.26,-3.15 -3.11,-6.02 -5.45,-8.43c-2.33,-2.42 -5.1,-4.33 -8.15,-5.64c-1.51,-0.65 -3.07,-1.14 -4.66,-1.47c-2.7,-0.56 -4.96,1.73 -4.96,4.49l0,16c0,2.76 2.24,5 5,5l15.14,0z" fill="#3f3f3f" id="svg_2"/>
  <text fill="#11142D" font-family="Sans-serif" font-size="25" font-weight="bold" id="svg_5" text-anchor="middle" transform="matrix(0.99486 0 0 0.947425 -5.82864 52.1423)" x="111.7" xml:space="preserve" y="-33.44">GymFitz</text>
  <path d="m32.24,25.76c-2.76,0 -5.05,-2.26 -4.53,-4.97c0.32,-1.7 0.8,-3.37 1.44,-4.98c1.27,-3.15 3.12,-6.02 5.45,-8.43c2.34,-2.42 5.11,-4.33 8.16,-5.64c1.5,-0.65 3.06,-1.14 4.65,-1.47c2.71,-0.56 4.97,1.73 4.97,4.49l0,16c0,2.76 -2.24,5 -5,5l-15.14,0z" fill="#000000" id="svg_4" opacity="0.55"/>
 </g>
</svg>